<?xml version="1.0"?>
<!DOCTYPE svg PUBLIC "-//W3C//DTD SVG 1.1//EN" "http://www.w3.org/Graphics/SVG/1.1/DTD/svg11.dtd">
<svg width="100%" height="100%" version="1.1" xmlns="http://www.w3.org/2000/svg">
    <defs><style type="text/css"><![CDATA[line {
    fill: blue;
    stroke: blue;
    stroke-width: 1
}]]></style></defs>
    <line x1="25.0" y1="25.0" x2="20.954915028125264" y2="22.061073738537633"/>
    <line x1="20.954915028125264" y1="22.061073738537633" x2="25.710197609601032" y2="20.515988766662897"/>
    <line x1="25.710197609601032" y1="20.515988766662897" x2="27.255282581475768" y2="15.760706185187129"/>
    <line x1="27.255282581475768" y1="15.760706185187129" x2="30.194208842938135" y2="19.805791157061865"/>
    <line x1="30.194208842938135" y1="19.805791157061865" x2="35.19420884293814" y2="19.805791157061865"/>
    <line x1="35.19420884293814" y1="19.805791157061865" x2="32.255282581475775" y2="23.8508761289366"/>
    <line x1="32.255282581475775" y1="23.8508761289366" x2="33.80036755335051" y2="28.60615871041237"/>
    <line x1="33.80036755335051" y1="28.60615871041237" x2="29.045084971874743" y2="27.06107373853763"/>
    <line x1="29.045084971874743" y1="27.06107373853763" x2="25.000000000000007" y2="29.999999999999996"/>
    <line x1="25.000000000000007" y1="29.999999999999996" x2="25.000000000000007" y2="24.999999999999996"/>
    <line x1="46.00000000000001" y1="24.999999999999996" x2="41.95491502812527" y2="22.06107373853763"/>
    <line x1="41.95491502812527" y1="22.06107373853763" x2="46.71019760960104" y2="20.515988766662893"/>
    <line x1="46.71019760960104" y1="20.515988766662893" x2="48.255282581475775" y2="15.760706185187125"/>
    <line x1="48.255282581475775" y1="15.760706185187125" x2="51.194208842938146" y2="19.805791157061858"/>
    <line x1="51.194208842938146" y1="19.805791157061858" x2="56.194208842938146" y2="19.805791157061858"/>
    <line x1="56.194208842938146" y1="19.805791157061858" x2="53.25528258147578" y2="23.850876128936598"/>
    <line x1="53.25528258147578" y1="23.850876128936598" x2="54.80036755335052" y2="28.606158710412366"/>
    <line x1="54.80036755335052" y1="28.606158710412366" x2="50.04508497187475" y2="27.06107373853763"/>
    <line x1="50.04508497187475" y1="27.06107373853763" x2="46.000000000000014" y2="29.999999999999996"/>
    <line x1="46.000000000000014" y1="29.999999999999996" x2="46.000000000000014" y2="24.999999999999996"/>
    <line x1="67.00000000000001" y1="24.999999999999996" x2="62.95491502812528" y2="22.061073738537633"/>
    <line x1="62.95491502812528" y1="22.061073738537633" x2="67.71019760960104" y2="20.515988766662893"/>
    <line x1="67.71019760960104" y1="20.515988766662893" x2="69.25528258147577" y2="15.760706185187125"/>
    <line x1="69.25528258147577" y1="15.760706185187125" x2="72.19420884293814" y2="19.80579115706186"/>
    <line x1="72.19420884293814" y1="19.80579115706186" x2="77.19420884293814" y2="19.805791157061858"/>
    <line x1="77.19420884293814" y1="19.805791157061858" x2="74.25528258147577" y2="23.850876128936598"/>
    <line x1="74.25528258147577" y1="23.850876128936598" x2="75.8003675533505" y2="28.606158710412366"/>
    <line x1="75.8003675533505" y1="28.606158710412366" x2="71.04508497187473" y2="27.06107373853764"/>
    <line x1="71.04508497187473" y1="27.06107373853764" x2="67.0" y2="30.000000000000007"/>
    <line x1="67.0" y1="30.000000000000007" x2="66.99999999999999" y2="25.000000000000007"/>
    <line x1="87.99999999999999" y1="25.000000000000007" x2="83.95491502812524" y2="22.061073738537644"/>
    <line x1="83.95491502812524" y1="22.061073738537644" x2="88.71019760960101" y2="20.51598876666291"/>
    <line x1="88.71019760960101" y1="20.51598876666291" x2="90.25528258147574" y2="15.760706185187143"/>
    <line x1="90.25528258147574" y1="15.760706185187143" x2="93.19420884293811" y2="19.805791157061872"/>
    <line x1="93.19420884293811" y1="19.805791157061872" x2="98.19420884293811" y2="19.80579115706187"/>
    <line x1="98.19420884293811" y1="19.80579115706187" x2="95.25528258147574" y2="23.850876128936605"/>
    <line x1="95.25528258147574" y1="23.850876128936605" x2="96.80036755335048" y2="28.606158710412373"/>
    <line x1="96.80036755335048" y1="28.606158710412373" x2="92.04508497187472" y2="27.061073738537647"/>
    <line x1="92.04508497187472" y1="27.061073738537647" x2="87.99999999999999" y2="30.000000000000018"/>
    <line x1="87.99999999999999" y1="30.000000000000018" x2="87.99999999999997" y2="25.000000000000018"/>
    <line x1="108.99999999999997" y1="25.000000000000018" x2="104.95491502812523" y2="22.061073738537655"/>
    <line x1="104.95491502812523" y1="22.061073738537655" x2="109.710197609601" y2="20.51598876666292"/>
    <line x1="109.710197609601" y1="20.51598876666292" x2="111.25528258147573" y2="15.760706185187153"/>
    <line x1="111.25528258147573" y1="15.760706185187153" x2="114.19420884293808" y2="19.805791157061893"/>
    <line x1="114.19420884293808" y1="19.805791157061893" x2="119.19420884293808" y2="19.80579115706189"/>
    <line x1="119.19420884293808" y1="19.80579115706189" x2="116.25528258147573" y2="23.850876128936633"/>
    <line x1="116.25528258147573" y1="23.850876128936633" x2="117.80036755335047" y2="28.6061587104124"/>
    <line x1="117.80036755335047" y1="28.6061587104124" x2="113.0450849718747" y2="27.06107373853768"/>
    <line x1="113.0450849718747" y1="27.06107373853768" x2="108.99999999999996" y2="30.000000000000036"/>
    <line x1="108.99999999999996" y1="30.000000000000036" x2="108.99999999999994" y2="25.000000000000036"/>
    <line x1="129.99999999999994" y1="25.000000000000036" x2="125.95491502812519" y2="22.06107373853769"/>
    <line x1="125.95491502812519" y1="22.06107373853769" x2="130.71019760960095" y2="20.515988766662957"/>
    <line x1="130.71019760960095" y1="20.515988766662957" x2="132.25528258147568" y2="15.760706185187187"/>
    <line x1="132.25528258147568" y1="15.760706185187187" x2="135.19420884293802" y2="19.805791157061936"/>
    <line x1="135.19420884293802" y1="19.805791157061936" x2="140.19420884293802" y2="19.80579115706193"/>
    <line x1="140.19420884293802" y1="19.80579115706193" x2="137.25528258147568" y2="23.850876128936676"/>
    <line x1="137.25528258147568" y1="23.850876128936676" x2="138.8003675533504" y2="28.606158710412444"/>
    <line x1="138.8003675533504" y1="28.606158710412444" x2="134.04508497187464" y2="27.061073738537722"/>
    <line x1="134.04508497187464" y1="27.061073738537722" x2="129.99999999999991" y2="30.000000000000092"/>
    <line x1="129.99999999999991" y1="30.000000000000092" x2="129.9999999999999" y2="25.000000000000092"/>
    <line x1="150.9999999999999" y1="25.000000000000092" x2="146.95491502812516" y2="22.061073738537733"/>
    <line x1="146.95491502812516" y1="22.061073738537733" x2="151.71019760960093" y2="20.51598876666298"/>
    <line x1="151.71019760960093" y1="20.51598876666298" x2="153.25528258147565" y2="15.760706185187209"/>
    <line x1="153.25528258147565" y1="15.760706185187209" x2="156.194208842938" y2="19.805791157061957"/>
    <line x1="156.194208842938" y1="19.805791157061957" x2="161.194208842938" y2="19.80579115706195"/>
    <line x1="161.194208842938" y1="19.80579115706195" x2="158.25528258147565" y2="23.850876128936697"/>
    <line x1="158.25528258147565" y1="23.850876128936697" x2="159.8003675533504" y2="28.606158710412462"/>
    <line x1="159.8003675533504" y1="28.606158710412462" x2="155.04508497187464" y2="27.06107373853774"/>
    <line x1="155.04508497187464" y1="27.06107373853774" x2="150.99999999999991" y2="30.00000000000011"/>
    <line x1="150.99999999999991" y1="30.00000000000011" x2="150.9999999999999" y2="25.00000000000011"/>
    <line x1="171.9999999999999" y1="25.00000000000011" x2="167.95491502812516" y2="22.06107373853775"/>
    <line x1="167.95491502812516" y1="22.06107373853775" x2="172.71019760960093" y2="20.515988766662996"/>
    <line x1="172.71019760960093" y1="20.515988766662996" x2="174.25528258147565" y2="15.760706185187226"/>
    <line x1="174.25528258147565" y1="15.760706185187226" x2="177.194208842938" y2="19.805791157061975"/>
    <line x1="177.194208842938" y1="19.805791157061975" x2="182.194208842938" y2="19.805791157061968"/>
    <line x1="182.194208842938" y1="19.805791157061968" x2="179.25528258147565" y2="23.850876128936715"/>
    <line x1="179.25528258147565" y1="23.850876128936715" x2="180.8003675533504" y2="28.60615871041248"/>
    <line x1="180.8003675533504" y1="28.60615871041248" x2="176.04508497187464" y2="27.06107373853776"/>
    <line x1="176.04508497187464" y1="27.06107373853776" x2="171.99999999999991" y2="30.000000000000135"/>
    <line x1="171.99999999999991" y1="30.000000000000135" x2="171.9999999999999" y2="25.000000000000135"/>
    <line x1="192.9999999999999" y1="25.000000000000135" x2="188.95491502812516" y2="22.06107373853778"/>
    <line x1="188.95491502812516" y1="22.06107373853778" x2="193.71019760960093" y2="20.515988766663025"/>
    <line x1="193.71019760960093" y1="20.515988766663025" x2="195.25528258147565" y2="15.760706185187253"/>
    <line x1="195.25528258147565" y1="15.760706185187253" x2="198.194208842938" y2="19.805791157062"/>
    <line x1="198.194208842938" y1="19.805791157062" x2="203.194208842938" y2="19.80579115706199"/>
    <line x1="203.194208842938" y1="19.80579115706199" x2="200.25528258147565" y2="23.85087612893674"/>
    <line x1="200.25528258147565" y1="23.85087612893674" x2="201.80036755335044" y2="28.606158710412494"/>
    <line x1="201.80036755335044" y1="28.606158710412494" x2="197.04508497187467" y2="27.06107373853774"/>
    <line x1="197.04508497187467" y1="27.06107373853774" x2="192.99999999999994" y2="30.000000000000114"/>
    <line x1="192.99999999999994" y1="30.000000000000114" x2="192.99999999999991" y2="25.000000000000114"/>
    <line x1="213.99999999999991" y1="25.000000000000114" x2="209.95491502812519" y2="22.061073738537758"/>
    <line x1="209.95491502812519" y1="22.061073738537758" x2="214.71019760960095" y2="20.515988766663"/>
    <line x1="214.71019760960095" y1="20.515988766663" x2="216.2552825814757" y2="15.760706185187239"/>
    <line x1="216.2552825814757" y1="15.760706185187239" x2="219.19420884293805" y2="19.805791157061986"/>
    <line x1="219.19420884293805" y1="19.805791157061986" x2="224.19420884293805" y2="19.805791157061975"/>
    <line x1="224.19420884293805" y1="19.805791157061975" x2="221.2552825814757" y2="23.850876128936726"/>
    <line x1="221.2552825814757" y1="23.850876128936726" x2="222.8003675533505" y2="28.60615871041248"/>
    <line x1="222.8003675533505" y1="28.60615871041248" x2="218.04508497187473" y2="27.06107373853773"/>
    <line x1="218.04508497187473" y1="27.06107373853773" x2="214.0" y2="30.000000000000103"/>
    <line x1="214.0" y1="30.000000000000103" x2="213.99999999999997" y2="25.000000000000103"/>
    <line x1="24.99999999999997" y1="45.0000000000001" x2="20.954915028125228" y2="42.06107373853774"/>
    <line x1="20.954915028125228" y1="42.06107373853774" x2="25.71019760960099" y2="40.515988766662986"/>
    <line x1="25.71019760960099" y1="40.515988766662986" x2="27.255282581475747" y2="35.760706185187225"/>
    <line x1="27.255282581475747" y1="35.760706185187225" x2="30.1942088429381" y2="39.80579115706197"/>
    <line x1="30.1942088429381" y1="39.80579115706197" x2="35.194208842938096" y2="39.805791157061954"/>
    <line x1="35.194208842938096" y1="39.805791157061954" x2="32.25528258147575" y2="43.850876128936704"/>
    <line x1="32.25528258147575" y1="43.850876128936704" x2="33.80036755335053" y2="48.60615871041246"/>
    <line x1="33.80036755335053" y1="48.60615871041246" x2="29.04508497187477" y2="47.06107373853771"/>
    <line x1="29.04508497187477" y1="47.06107373853771" x2="25.00000000000004" y2="50.000000000000085"/>
    <line x1="25.00000000000004" y1="50.000000000000085" x2="25.000000000000018" y2="45.000000000000085"/>
    <line x1="46.000000000000014" y1="45.000000000000085" x2="41.95491502812525" y2="42.06107373853776"/>
    <line x1="41.95491502812525" y1="42.06107373853776" x2="46.710197609600996" y2="40.515988766662964"/>
    <line x1="46.710197609600996" y1="40.515988766662964" x2="48.25528258147572" y2="35.76070618518719"/>
    <line x1="48.25528258147572" y1="35.76070618518719" x2="51.1942088429381" y2="39.80579115706191"/>
    <line x1="51.1942088429381" y1="39.80579115706191" x2="56.1942088429381" y2="39.80579115706186"/>
    <line x1="56.1942088429381" y1="39.80579115706186" x2="53.25528258147578" y2="43.85087612893663"/>
    <line x1="53.25528258147578" y1="43.85087612893663" x2="54.80036755335053" y2="48.606158710412394"/>
    <line x1="54.80036755335053" y1="48.606158710412394" x2="50.04508497187476" y2="47.06107373853768"/>
    <line x1="50.04508497187476" y1="47.06107373853768" x2="46.00000000000001" y2="50.00000000000003"/>
    <line x1="46.00000000000001" y1="50.00000000000003" x2="46.00000000000002" y2="45.00000000000003"/>
    <line x1="67.00000000000003" y1="45.00000000000003" x2="62.954915028125285" y2="42.06107373853767"/>
    <line x1="62.954915028125285" y1="42.06107373853767" x2="67.71019760960104" y2="40.515988766662915"/>
    <line x1="67.71019760960104" y1="40.515988766662915" x2="69.2552825814758" y2="35.76070618518715"/>
    <line x1="69.2552825814758" y1="35.76070618518715" x2="72.19420884293815" y2="39.8057911570619"/>
    <line x1="72.19420884293815" y1="39.8057911570619" x2="77.19420884293815" y2="39.80579115706188"/>
    <line x1="77.19420884293815" y1="39.80579115706188" x2="74.25528258147581" y2="43.85087612893663"/>
    <line x1="74.25528258147581" y1="43.85087612893663" x2="75.8003675533506" y2="48.60615871041239"/>
    <line x1="75.8003675533506" y1="48.60615871041239" x2="71.04508497187483" y2="47.06107373853764"/>
    <line x1="71.04508497187483" y1="47.06107373853764" x2="67.0000000000001" y2="50.000000000000014"/>
    <line x1="67.0000000000001" y1="50.000000000000014" x2="67.00000000000007" y2="45.000000000000014"/>
    <line x1="88.00000000000007" y1="45.000000000000014" x2="83.9549150281253" y2="42.06107373853769"/>
    <line x1="83.9549150281253" y1="42.06107373853769" x2="88.71019760960105" y2="40.51598876666289"/>
    <line x1="88.71019760960105" y1="40.51598876666289" x2="90.25528258147577" y2="35.76070618518712"/>
    <line x1="90.25528258147577" y1="35.76070618518712" x2="93.19420884293815" y2="39.80579115706184"/>
    <line x1="93.19420884293815" y1="39.80579115706184" x2="98.19420884293815" y2="39.80579115706186"/>
    <line x1="98.19420884293815" y1="39.80579115706186" x2="95.25528258147584" y2="43.85087612893663"/>
    <line x1="95.25528258147584" y1="43.85087612893663" x2="96.8003675533506" y2="48.606158710412394"/>
    <line x1="96.8003675533506" y1="48.606158710412394" x2="92.04508497187481" y2="47.06107373853768"/>
    <line x1="92.04508497187481" y1="47.06107373853768" x2="88.00000000000007" y2="50.00000000000003"/>
    <line x1="88.00000000000007" y1="50.00000000000003" x2="88.00000000000009" y2="45.00000000000003"/>
    <line x1="109.00000000000009" y1="45.00000000000003" x2="104.95491502812534" y2="42.06107373853767"/>
    <line x1="104.95491502812534" y1="42.06107373853767" x2="109.7101976096011" y2="40.51598876666291"/>
    <line x1="109.7101976096011" y1="40.51598876666291" x2="111.25528258147585" y2="35.760706185187146"/>
    <line x1="111.25528258147585" y1="35.760706185187146" x2="114.19420884293821" y2="39.80579115706189"/>
    <line x1="114.19420884293821" y1="39.80579115706189" x2="119.19420884293821" y2="39.805791157061876"/>
    <line x1="119.19420884293821" y1="39.805791157061876" x2="116.25528258147587" y2="43.850876128936626"/>
    <line x1="116.25528258147587" y1="43.850876128936626" x2="117.80036755335065" y2="48.60615871041238"/>
    <line x1="117.80036755335065" y1="48.60615871041238" x2="113.04508497187489" y2="47.06107373853764"/>
    <line x1="113.04508497187489" y1="47.06107373853764" x2="109.00000000000016" y2="50.000000000000014"/>
    <line x1="109.00000000000016" y1="50.000000000000014" x2="109.00000000000013" y2="45.000000000000014"/>
    <line x1="130.0000000000001" y1="45.000000000000014" x2="125.95491502812534" y2="42.061073738537694"/>
    <line x1="125.95491502812534" y1="42.061073738537694" x2="130.7101976096011" y2="40.5159887666629"/>
    <line x1="130.7101976096011" y1="40.5159887666629" x2="132.25528258147583" y2="35.760706185187125"/>
    <line x1="132.25528258147583" y1="35.760706185187125" x2="135.19420884293822" y2="39.80579115706185"/>
    <line x1="135.19420884293822" y1="39.80579115706185" x2="140.19420884293822" y2="39.80579115706179"/>
    <line x1="140.19420884293822" y1="39.80579115706179" x2="137.2552825814759" y2="43.85087612893656"/>
    <line x1="137.2552825814759" y1="43.85087612893656" x2="138.80036755335067" y2="48.60615871041232"/>
    <line x1="138.80036755335067" y1="48.60615871041232" x2="134.0450849718749" y2="47.061073738537615"/>
    <line x1="134.0450849718749" y1="47.061073738537615" x2="130.00000000000014" y2="49.99999999999997"/>
    <line x1="130.00000000000014" y1="49.99999999999997" x2="130.00000000000014" y2="44.99999999999997"/>
    <line x1="151.00000000000014" y1="44.99999999999997" x2="146.95491502812538" y2="42.06107373853762"/>
    <line x1="146.95491502812538" y1="42.06107373853762" x2="151.71019760960115" y2="40.51598876666286"/>
    <line x1="151.71019760960115" y1="40.51598876666286" x2="153.2552825814759" y2="35.7607061851871"/>
    <line x1="153.2552825814759" y1="35.7607061851871" x2="156.19420884293834" y2="39.8057911570618"/>
    <line x1="156.19420884293834" y1="39.8057911570618" x2="161.19420884293834" y2="39.805791157061776"/>
    <line x1="161.19420884293834" y1="39.805791157061776" x2="158.25528258147594" y2="43.85087612893649"/>
    <line x1="158.25528258147594" y1="43.85087612893649" x2="159.80036755335072" y2="48.606158710412245"/>
    <line x1="159.80036755335072" y1="48.606158710412245" x2="155.04508497187496" y2="47.0610737385375"/>
    <line x1="155.04508497187496" y1="47.0610737385375" x2="151.00000000000028" y2="49.99999999999994"/>
    <line x1="151.00000000000028" y1="49.99999999999994" x2="151.00000000000026" y2="44.99999999999994"/>
    <line x1="172.00000000000026" y1="44.99999999999994" x2="167.95491502812553" y2="42.061073738537566"/>
    <line x1="167.95491502812553" y1="42.061073738537566" x2="172.71019760960127" y2="40.515988766662765"/>
    <line x1="172.71019760960127" y1="40.515988766662765" x2="174.255282581476" y2="35.76070618518699"/>
    <line x1="174.255282581476" y1="35.76070618518699" x2="177.19420884293845" y2="39.80579115706167"/>
    <line x1="177.19420884293845" y1="39.80579115706167" x2="182.19420884293845" y2="39.805791157061684"/>
    <line x1="182.19420884293845" y1="39.805791157061684" x2="179.25528258147608" y2="43.85087612893642"/>
    <line x1="179.25528258147608" y1="43.85087612893642" x2="180.80036755335084" y2="48.60615871041218"/>
    <line x1="180.80036755335084" y1="48.60615871041218" x2="176.04508497187507" y2="47.06107373853747"/>
    <line x1="176.04508497187507" y1="47.06107373853747" x2="172.00000000000037" y2="49.999999999999886"/>
    <line x1="172.00000000000037" y1="49.999999999999886" x2="172.00000000000037" y2="44.999999999999886"/>
    <line x1="193.00000000000037" y1="44.999999999999886" x2="188.95491502812567" y2="42.06107373853748"/>
    <line x1="188.95491502812567" y1="42.06107373853748" x2="193.71019760960144" y2="40.515988766662716"/>
    <line x1="193.71019760960144" y1="40.515988766662716" x2="195.2552825814762" y2="35.760706185186955"/>
    <line x1="195.2552825814762" y1="35.760706185186955" x2="198.19420884293862" y2="39.805791157061655"/>
    <line x1="198.19420884293862" y1="39.805791157061655" x2="203.19420884293862" y2="39.805791157061634"/>
    <line x1="203.19420884293862" y1="39.805791157061634" x2="200.25528258147622" y2="43.85087612893635"/>
    <line x1="200.25528258147622" y1="43.85087612893635" x2="201.800367553351" y2="48.606158710412096"/>
    <line x1="201.800367553351" y1="48.606158710412096" x2="197.04508497187524" y2="47.06107373853735"/>
    <line x1="197.04508497187524" y1="47.06107373853735" x2="193.00000000000057" y2="49.999999999999794"/>
    <line x1="193.00000000000057" y1="49.999999999999794" x2="193.00000000000054" y2="44.999999999999794"/>
    <line x1="214.00000000000054" y1="44.999999999999794" x2="209.9549150281258" y2="42.06107373853742"/>
    <line x1="209.9549150281258" y1="42.06107373853742" x2="214.71019760960155" y2="40.515988766662616"/>
    <line x1="214.71019760960155" y1="40.515988766662616" x2="216.25528258147628" y2="35.76070618518684"/>
    <line x1="216.25528258147628" y1="35.76070618518684" x2="219.19420884293874" y2="39.80579115706152"/>
    <line x1="219.19420884293874" y1="39.80579115706152" x2="224.19420884293874" y2="39.80579115706146"/>
    <line x1="224.19420884293874" y1="39.80579115706146" x2="221.25528258147637" y2="43.8508761289362"/>
    <line x1="221.25528258147637" y1="43.8508761289362" x2="222.80036755335112" y2="48.60615871041196"/>
    <line x1="222.80036755335112" y1="48.60615871041196" x2="218.04508497187535" y2="47.06107373853725"/>
    <line x1="218.04508497187535" y1="47.06107373853725" x2="214.00000000000065" y2="49.999999999999666"/>
    <line x1="214.00000000000065" y1="49.999999999999666" x2="214.00000000000065" y2="44.999999999999666"/>
    <line x1="25.000000000000654" y1="64.99999999999966" x2="20.954915028125946" y2="62.06107373853725"/>
    <line x1="20.954915028125946" y1="62.06107373853725" x2="25.710197609601703" y2="60.51598876666248"/>
    <line x1="25.710197609601703" y1="60.51598876666248" x2="27.25528258147645" y2="55.76070618518672"/>
    <line x1="27.25528258147645" y1="55.76070618518672" x2="30.19420884293887" y2="59.805791157061414"/>
    <line x1="30.19420884293887" y1="59.805791157061414" x2="35.19420884293887" y2="59.80579115706139"/>
    <line x1="35.19420884293887" y1="59.80579115706139" x2="32.25528258147647" y2="63.85087612893611"/>
    <line x1="32.25528258147647" y1="63.85087612893611" x2="33.800367553351265" y2="68.60615871041186"/>
    <line x1="33.800367553351265" y1="68.60615871041186" x2="29.045084971875497" y2="67.06107373853712"/>
    <line x1="29.045084971875497" y1="67.06107373853712" x2="25.000000000000817" y2="69.99999999999956"/>
    <line x1="25.000000000000817" y1="69.99999999999956" x2="25.000000000000853" y2="64.99999999999956"/>
    <line x1="46.00000000000085" y1="64.99999999999956" x2="41.954915028126166" y2="62.061073738537125"/>
    <line x1="41.954915028126166" y1="62.061073738537125" x2="46.71019760960191" y2="60.51598876666232"/>
    <line x1="46.71019760960191" y1="60.51598876666232" x2="48.25528258147663" y2="55.76070618518654"/>
    <line x1="48.25528258147663" y1="55.76070618518654" x2="51.19420884293902" y2="59.80579115706126"/>
    <line x1="51.19420884293902" y1="59.80579115706126" x2="56.19420884293902" y2="59.805791157061265"/>
    <line x1="56.19420884293902" y1="59.805791157061265" x2="53.255282581476656" y2="63.850876128936"/>
    <line x1="53.255282581476656" y1="63.850876128936" x2="54.800367553351485" y2="68.60615871041173"/>
    <line x1="54.800367553351485" y1="68.60615871041173" x2="50.04508497187573" y2="67.06107373853696"/>
    <line x1="50.04508497187573" y1="67.06107373853696" x2="46.00000000000103" y2="69.99999999999937"/>
    <line x1="46.00000000000103" y1="69.99999999999937" x2="46.00000000000096" y2="64.99999999999937"/>
    <line x1="67.00000000000097" y1="64.99999999999937" x2="62.954915028126216" y2="62.06107373853703"/>
    <line x1="62.954915028126216" y1="62.06107373853703" x2="67.71019760960198" y2="60.51598876666226"/>
    <line x1="67.71019760960198" y1="60.51598876666226" x2="69.25528258147672" y2="55.76070618518649"/>
    <line x1="69.25528258147672" y1="55.76070618518649" x2="72.1942088429392" y2="59.805791157061144"/>
    <line x1="72.1942088429392" y1="59.805791157061144" x2="77.1942088429392" y2="59.805791157061044"/>
    <line x1="77.1942088429392" y1="59.805791157061044" x2="74.2552825814768" y2="63.85087612893576"/>
    <line x1="74.2552825814768" y1="63.85087612893576" x2="75.8003675533516" y2="68.6061587104115"/>
    <line x1="75.8003675533516" y1="68.6061587104115" x2="71.04508497187581" y2="67.06107373853683"/>
    <line x1="71.04508497187581" y1="67.06107373853683" x2="67.0000000000011" y2="69.99999999999922"/>
    <line x1="67.0000000000011" y1="69.99999999999922" x2="67.00000000000105" y2="64.99999999999922"/>
    <line x1="88.00000000000105" y1="64.99999999999922" x2="83.95491502812632" y2="62.06107373853685"/>
    <line x1="83.95491502812632" y1="62.06107373853685" x2="88.71019760960209" y2="60.51598876666211"/>
    <line x1="88.71019760960209" y1="60.51598876666211" x2="90.25528258147686" y2="55.76070618518636"/>
    <line x1="90.25528258147686" y1="55.76070618518636" x2="93.19420884293932" y2="59.80579115706103"/>
    <line x1="93.19420884293932" y1="59.80579115706103" x2="98.19420884293932" y2="59.805791157060966"/>
    <line x1="98.19420884293932" y1="59.805791157060966" x2="95.25528258147689" y2="63.85087612893566"/>
    <line x1="95.25528258147689" y1="63.85087612893566" x2="96.80036755335165" y2="68.60615871041142"/>
    <line x1="96.80036755335165" y1="68.60615871041142" x2="92.04508497187587" y2="67.06107373853672"/>
    <line x1="92.04508497187587" y1="67.06107373853672" x2="88.00000000000121" y2="69.99999999999919"/>
    <line x1="88.00000000000121" y1="69.99999999999919" x2="88.00000000000121" y2="64.99999999999919"/>
    <line x1="109.00000000000121" y1="64.99999999999919" x2="104.95491502812649" y2="62.06107373853679"/>
    <line x1="104.95491502812649" y1="62.06107373853679" x2="109.71019760960223" y2="60.51598876666195"/>
    <line x1="109.71019760960223" y1="60.51598876666195" x2="111.2552825814769" y2="55.76070618518616"/>
    <line x1="111.2552825814769" y1="55.76070618518616" x2="114.19420884293933" y2="59.80579115706085"/>
    <line x1="114.19420884293933" y1="59.80579115706085" x2="119.19420884293933" y2="59.805791157060824"/>
    <line x1="119.19420884293933" y1="59.805791157060824" x2="116.25528258147699" y2="63.85087612893558"/>
    <line x1="116.25528258147699" y1="63.85087612893558" x2="117.80036755335172" y2="68.60615871041135"/>
    <line x1="117.80036755335172" y1="68.60615871041135" x2="113.04508497187595" y2="67.06107373853662"/>
    <line x1="113.04508497187595" y1="67.06107373853662" x2="109.00000000000128" y2="69.99999999999906"/>
    <line x1="109.00000000000128" y1="69.99999999999906" x2="109.00000000000131" y2="64.99999999999906"/>
    <line x1="130.0000000000013" y1="64.99999999999906" x2="125.95491502812662" y2="62.061073738536635"/>
    <line x1="125.95491502812662" y1="62.061073738536635" x2="130.71019760960237" y2="60.51598876666183"/>
    <line x1="130.71019760960237" y1="60.51598876666183" x2="132.25528258147708" y2="55.76070618518605"/>
    <line x1="132.25528258147708" y1="55.76070618518605" x2="135.19420884293947" y2="59.80579115706077"/>
    <line x1="135.19420884293947" y1="59.80579115706077" x2="140.19420884293947" y2="59.805791157060774"/>
    <line x1="140.19420884293947" y1="59.805791157060774" x2="137.2552825814771" y2="63.85087612893551"/>
    <line x1="137.2552825814771" y1="63.85087612893551" x2="138.80036755335195" y2="68.60615871041125"/>
    <line x1="138.80036755335195" y1="68.60615871041125" x2="134.04508497187618" y2="67.06107373853648"/>
    <line x1="134.04508497187618" y1="67.06107373853648" x2="130.00000000000148" y2="69.99999999999889"/>
    <line x1="130.00000000000148" y1="69.99999999999889" x2="130.0000000000014" y2="64.99999999999889"/>
    <line x1="151.0000000000014" y1="64.99999999999889" x2="146.95491502812663" y2="62.06107373853655"/>
    <line x1="146.95491502812663" y1="62.06107373853655" x2="151.7101976096024" y2="60.51598876666177"/>
    <line x1="151.7101976096024" y1="60.51598876666177" x2="153.25528258147713" y2="55.760706185186"/>
    <line x1="153.25528258147713" y1="55.760706185186" x2="156.19420884293962" y2="59.80579115706065"/>
    <line x1="156.19420884293962" y1="59.80579115706065" x2="161.19420884293962" y2="59.805791157060696"/>
    <line x1="161.19420884293962" y1="59.805791157060696" x2="158.25528258147722" y2="63.85087612893542"/>
    <line x1="158.25528258147722" y1="63.85087612893542" x2="159.80036755335203" y2="68.60615871041117"/>
    <line x1="159.80036755335203" y1="68.60615871041117" x2="155.04508497187624" y2="67.0610737385365"/>
    <line x1="155.04508497187624" y1="67.0610737385365" x2="151.0000000000015" y2="69.99999999999889"/>
    <line x1="151.0000000000015" y1="69.99999999999889" x2="151.00000000000148" y2="64.99999999999889"/>
    <line x1="172.00000000000148" y1="64.99999999999889" x2="167.95491502812675" y2="62.06107373853652"/>
    <line x1="167.95491502812675" y1="62.06107373853652" x2="172.71019760960252" y2="60.51598876666178"/>
    <line x1="172.71019760960252" y1="60.51598876666178" x2="174.2552825814773" y2="55.760706185186024"/>
    <line x1="174.2552825814773" y1="55.760706185186024" x2="177.19420884293976" y2="59.805791157060696"/>
    <line x1="177.19420884293976" y1="59.805791157060696" x2="182.19420884293976" y2="59.805791157060625"/>
    <line x1="182.19420884293976" y1="59.805791157060625" x2="179.25528258147733" y2="63.850876128935326"/>
    <line x1="179.25528258147733" y1="63.850876128935326" x2="180.8003675533521" y2="68.60615871041108"/>
    <line x1="180.8003675533521" y1="68.60615871041108" x2="176.04508497187632" y2="67.06107373853638"/>
    <line x1="176.04508497187632" y1="67.06107373853638" x2="172.00000000000168" y2="69.99999999999886"/>
    <line x1="172.00000000000168" y1="69.99999999999886" x2="172.00000000000168" y2="64.99999999999886"/>
    <line x1="193.00000000000168" y1="64.99999999999886" x2="188.95491502812695" y2="62.061073738536464"/>
    <line x1="188.95491502812695" y1="62.061073738536464" x2="193.7101976096027" y2="60.51598876666162"/>
    <line x1="193.7101976096027" y1="60.51598876666162" x2="195.25528258147736" y2="55.76070618518583"/>
    <line x1="195.25528258147736" y1="55.76070618518583" x2="198.1942088429398" y2="59.805791157060526"/>
    <line x1="198.1942088429398" y1="59.805791157060526" x2="203.1942088429398" y2="59.80579115706049"/>
    <line x1="203.1942088429398" y1="59.80579115706049" x2="200.25528258147745" y2="63.850876128935255"/>
    <line x1="200.25528258147745" y1="63.850876128935255" x2="201.80036755335217" y2="68.60615871041102"/>
    <line x1="201.80036755335217" y1="68.60615871041102" x2="197.0450849718764" y2="67.0610737385363"/>
    <line x1="197.0450849718764" y1="67.0610737385363" x2="193.00000000000173" y2="69.99999999999875"/>
    <line x1="193.00000000000173" y1="69.99999999999875" x2="193.00000000000176" y2="64.99999999999875"/>
    <line x1="214.00000000000176" y1="64.99999999999875" x2="209.95491502812706" y2="62.06107373853632"/>
    <line x1="209.95491502812706" y1="62.06107373853632" x2="214.7101976096028" y2="60.51598876666151"/>
    <line x1="214.7101976096028" y1="60.51598876666151" x2="216.2552825814775" y2="55.760706185185725"/>
    <line x1="216.2552825814775" y1="55.760706185185725" x2="219.1942088429399" y2="59.80579115706044"/>
    <line x1="219.1942088429399" y1="59.80579115706044" x2="224.1942088429399" y2="59.80579115706044"/>
    <line x1="224.1942088429399" y1="59.80579115706044" x2="221.25528258147753" y2="63.850876128935184"/>
    <line x1="221.25528258147753" y1="63.850876128935184" x2="222.80036755335237" y2="68.60615871041092"/>
    <line x1="222.80036755335237" y1="68.60615871041092" x2="218.0450849718766" y2="67.06107373853617"/>
    <line x1="218.0450849718766" y1="67.06107373853617" x2="214.0000000000019" y2="69.9999999999986"/>
    <line x1="214.0000000000019" y1="69.9999999999986" x2="214.00000000000182" y2="64.9999999999986"/>
    <line x1="25.00000000000182" y1="84.9999999999986" x2="20.95491502812706" y2="82.06107373853625"/>
    <line x1="20.95491502812706" y1="82.06107373853625" x2="25.710197609602815" y2="80.51598876666147"/>
    <line x1="25.710197609602815" y1="80.51598876666147" x2="27.25528258147755" y2="75.7607061851857"/>
    <line x1="27.25528258147755" y1="75.7607061851857" x2="30.19420884294004" y2="79.80579115706034"/>
    <line x1="30.19420884294004" y1="79.80579115706034" x2="35.19420884294004" y2="79.80579115706023"/>
    <line x1="35.19420884294004" y1="79.80579115706023" x2="32.25528258147766" y2="83.85087612893494"/>
    <line x1="32.25528258147766" y1="83.85087612893494" x2="33.800367553352466" y2="88.60615871041068"/>
    <line x1="33.800367553352466" y1="88.60615871041068" x2="29.045084971876673" y2="87.06107373853602"/>
    <line x1="29.045084971876673" y1="87.06107373853602" x2="25.000000000001958" y2="89.99999999999842"/>
    <line x1="25.000000000001958" y1="89.99999999999842" x2="25.00000000000191" y2="84.99999999999842"/>
    <line x1="46.00000000000191" y1="84.99999999999842" x2="41.954915028127175" y2="82.06107373853605"/>
    <line x1="41.954915028127175" y1="82.06107373853605" x2="46.71019760960294" y2="80.51598876666131"/>
    <line x1="46.71019760960294" y1="80.51598876666131" x2="48.255282581477715" y2="75.76070618518555"/>
    <line x1="48.255282581477715" y1="75.76070618518555" x2="51.19420884294018" y2="79.80579115706023"/>
    <line x1="51.19420884294018" y1="79.80579115706023" x2="56.19420884294018" y2="79.80579115706016"/>
    <line x1="56.19420884294018" y1="79.80579115706016" x2="53.255282581477765" y2="83.85087612893486"/>
    <line x1="53.255282581477765" y1="83.85087612893486" x2="54.80036755335254" y2="88.60615871041061"/>
    <line x1="54.80036755335254" y1="88.60615871041061" x2="50.045084971876754" y2="87.06107373853592"/>
    <line x1="50.045084971876754" y1="87.06107373853592" x2="46.0000000000021" y2="89.99999999999841"/>
    <line x1="46.0000000000021" y1="89.99999999999841" x2="46.00000000000209" y2="84.99999999999841"/>
    <line x1="67.00000000000209" y1="84.99999999999841" x2="62.954915028127374" y2="82.06107373853601"/>
    <line x1="62.954915028127374" y1="82.06107373853601" x2="67.7101976096031" y2="80.51598876666115"/>
    <line x1="67.7101976096031" y1="80.51598876666115" x2="69.25528258147777" y2="75.76070618518536"/>
    <line x1="69.25528258147777" y1="75.76070618518536" x2="72.1942088429402" y2="79.80579115706004"/>
    <line x1="72.1942088429402" y1="79.80579115706004" x2="77.1942088429402" y2="79.80579115706"/>
    <line x1="77.1942088429402" y1="79.80579115706" x2="74.25528258147787" y2="83.85087612893477"/>
    <line x1="74.25528258147787" y1="83.85087612893477" x2="75.80036755335261" y2="88.60615871041054"/>
    <line x1="75.80036755335261" y1="88.60615871041054" x2="71.0450849718768" y2="87.06107373853595"/>
    <line x1="71.0450849718768" y1="87.06107373853595" x2="67.00000000000213" y2="89.99999999999841"/>
    <line x1="67.00000000000213" y1="89.99999999999841" x2="67.00000000000216" y2="84.99999999999841"/>
    <line x1="88.00000000000216" y1="84.99999999999841" x2="83.95491502812746" y2="82.061073738536"/>
    <line x1="83.95491502812746" y1="82.061073738536" x2="88.71019760960324" y2="80.51598876666131"/>
    <line x1="88.71019760960324" y1="80.51598876666131" x2="90.2552825814778" y2="75.76070618518548"/>
    <line x1="90.2552825814778" y1="75.76070618518548" x2="93.19420884294021" y2="79.80579115706018"/>
    <line x1="93.19420884294021" y1="79.80579115706018" x2="98.19420884294021" y2="79.80579115706018"/>
    <line x1="98.19420884294021" y1="79.80579115706018" x2="95.25528258147786" y2="83.85087612893493"/>
    <line x1="95.25528258147786" y1="83.85087612893493" x2="96.80036755335257" y2="88.60615871041071"/>
    <line x1="96.80036755335257" y1="88.60615871041071" x2="92.04508497187676" y2="87.0610737385361"/>
    <line x1="92.04508497187676" y1="87.0610737385361" x2="88.00000000000207" y2="89.99999999999852"/>
    <line x1="88.00000000000207" y1="89.99999999999852" x2="88.00000000000199" y2="84.99999999999852"/>
    <line x1="109.00000000000199" y1="84.99999999999852" x2="104.95491502812723" y2="82.0610737385362"/>
    <line x1="104.95491502812723" y1="82.0610737385362" x2="109.71019760960303" y2="80.51598876666155"/>
    <line x1="109.71019760960303" y1="80.51598876666155" x2="111.25528258147763" y2="75.76070618518574"/>
    <line x1="111.25528258147763" y1="75.76070618518574" x2="114.19420884294013" y2="79.80579115706038"/>
    <line x1="114.19420884294013" y1="79.80579115706038" x2="119.19420884294013" y2="79.80579115706041"/>
    <line x1="119.19420884294013" y1="79.80579115706041" x2="116.25528258147774" y2="83.85087612893514"/>
    <line x1="116.25528258147774" y1="83.85087612893514" x2="117.80036755335242" y2="88.60615871041092"/>
    <line x1="117.80036755335242" y1="88.60615871041092" x2="113.04508497187662" y2="87.06107373853627"/>
    <line x1="113.04508497187662" y1="87.06107373853627" x2="109.0000000000019" y2="89.99999999999866"/>
    <line x1="109.0000000000019" y1="89.99999999999866" x2="109.00000000000185" y2="84.99999999999866"/>
    <line x1="130.00000000000185" y1="84.99999999999866" x2="125.9549150281271" y2="82.06107373853631"/>
    <line x1="125.9549150281271" y1="82.06107373853631" x2="130.71019760960286" y2="80.51598876666155"/>
    <line x1="130.71019760960286" y1="80.51598876666155" x2="132.25528258147747" y2="75.76070618518575"/>
    <line x1="132.25528258147747" y1="75.76070618518575" x2="135.19420884293993" y2="79.80579115706041"/>
    <line x1="135.19420884293993" y1="79.80579115706041" x2="140.19420884293993" y2="79.80579115706033"/>
    <line x1="140.19420884293993" y1="79.80579115706033" x2="137.25528258147753" y2="83.85087612893503"/>
    <line x1="137.25528258147753" y1="83.85087612893503" x2="138.80036755335217" y2="88.60615871041082"/>
    <line x1="138.80036755335217" y1="88.60615871041082" x2="134.04508497187635" y2="87.06107373853627"/>
    <line x1="134.04508497187635" y1="87.06107373853627" x2="130.0000000000017" y2="89.99999999999875"/>
    <line x1="130.0000000000017" y1="89.99999999999875" x2="130.00000000000168" y2="84.99999999999875"/>
    <line x1="151.00000000000168" y1="84.99999999999875" x2="146.95491502812695" y2="82.06107373853636"/>
    <line x1="146.95491502812695" y1="82.06107373853636" x2="151.71019760960272" y2="80.51598876666165"/>
    <line x1="151.71019760960272" y1="80.51598876666165" x2="153.2552825814774" y2="75.76070618518585"/>
    <line x1="153.2552825814774" y1="75.76070618518585" x2="156.19420884293982" y2="79.80579115706054"/>
    <line x1="156.19420884293982" y1="79.80579115706054" x2="161.19420884293982" y2="79.8057911570605"/>
    <line x1="161.19420884293982" y1="79.8057911570605" x2="158.2552825814775" y2="83.85087612893527"/>
    <line x1="158.2552825814775" y1="83.85087612893527" x2="159.80036755335226" y2="88.60615871041104"/>
    <line x1="159.80036755335226" y1="88.60615871041104" x2="155.04508497187643" y2="87.06107373853645"/>
    <line x1="155.04508497187643" y1="87.06107373853645" x2="151.00000000000176" y2="89.9999999999989"/>
    <line x1="151.00000000000176" y1="89.9999999999989" x2="151.0000000000018" y2="84.9999999999989"/>
    <line x1="172.0000000000018" y1="84.9999999999989" x2="167.9549150281271" y2="82.06107373853649"/>
    <line x1="167.9549150281271" y1="82.06107373853649" x2="172.7101976096029" y2="80.5159887666618"/>
    <line x1="172.7101976096029" y1="80.5159887666618" x2="174.25528258147745" y2="75.76070618518598"/>
    <line x1="174.25528258147745" y1="75.76070618518598" x2="177.19420884293984" y2="79.80579115706068"/>
    <line x1="177.19420884293984" y1="79.80579115706068" x2="182.19420884293984" y2="79.80579115706067"/>
    <line x1="182.19420884293984" y1="79.80579115706067" x2="179.2552825814775" y2="83.85087612893541"/>
    <line x1="179.2552825814775" y1="83.85087612893541" x2="180.8003675533522" y2="88.6061587104112"/>
    <line x1="180.8003675533522" y1="88.6061587104112" x2="176.0450849718764" y2="87.06107373853658"/>
    <line x1="176.0450849718764" y1="87.06107373853658" x2="172.0000000000017" y2="89.999999999999"/>
    <line x1="172.0000000000017" y1="89.999999999999" x2="172.00000000000162" y2="84.999999999999"/>
    <line x1="193.00000000000162" y1="84.999999999999" x2="188.95491502812686" y2="82.06107373853668"/>
    <line x1="188.95491502812686" y1="82.06107373853668" x2="193.71019760960266" y2="80.51598876666202"/>
    <line x1="193.71019760960266" y1="80.51598876666202" x2="195.25528258147725" y2="75.76070618518621"/>
    <line x1="195.25528258147725" y1="75.76070618518621" x2="198.19420884293973" y2="79.80579115706085"/>
    <line x1="198.19420884293973" y1="79.80579115706085" x2="203.19420884293973" y2="79.80579115706074"/>
    <line x1="203.19420884293973" y1="79.80579115706074" x2="200.25528258147736" y2="83.85087612893547"/>
    <line x1="200.25528258147736" y1="83.85087612893547" x2="201.80036755335203" y2="88.60615871041125"/>
    <line x1="201.80036755335203" y1="88.60615871041125" x2="197.04508497187624" y2="87.0610737385366"/>
    <line x1="197.04508497187624" y1="87.0610737385366" x2="193.00000000000153" y2="89.999999999999"/>
    <line x1="193.00000000000153" y1="89.999999999999" x2="193.00000000000148" y2="84.999999999999"/>
    <line x1="214.00000000000148" y1="84.999999999999" x2="209.95491502812672" y2="82.06107373853665"/>
    <line x1="209.95491502812672" y1="82.06107373853665" x2="214.7101976096025" y2="80.51598876666189"/>
    <line x1="214.7101976096025" y1="80.51598876666189" x2="216.2552825814771" y2="75.76070618518608"/>
    <line x1="216.2552825814771" y1="75.76070618518608" x2="219.19420884293956" y2="79.80579115706074"/>
    <line x1="219.19420884293956" y1="79.80579115706074" x2="224.19420884293956" y2="79.80579115706065"/>
    <line x1="224.19420884293956" y1="79.80579115706065" x2="221.25528258147716" y2="83.85087612893537"/>
    <line x1="221.25528258147716" y1="83.85087612893537" x2="222.8003675533518" y2="88.60615871041117"/>
    <line x1="222.8003675533518" y1="88.60615871041117" x2="218.04508497187598" y2="87.06107373853662"/>
    <line x1="218.04508497187598" y1="87.06107373853662" x2="214.00000000000134" y2="89.99999999999912"/>
    <line x1="214.00000000000134" y1="89.99999999999912" x2="214.0000000000013" y2="84.99999999999912"/>
    <line x1="25.000000000001307" y1="104.99999999999912" x2="20.954915028126585" y2="102.06107373853673"/>
    <line x1="20.954915028126585" y1="102.06107373853673" x2="25.710197609602357" y2="100.515988766662"/>
    <line x1="25.710197609602357" y1="100.515988766662" x2="27.255282581477015" y2="95.76070618518621"/>
    <line x1="27.255282581477015" y1="95.76070618518621" x2="30.194208842939457" y2="99.8057911570609"/>
    <line x1="30.194208842939457" y1="99.8057911570609" x2="35.19420884293946" y2="99.80579115706085"/>
    <line x1="35.19420884293946" y1="99.80579115706085" x2="32.25528258147714" y2="103.85087612893562"/>
    <line x1="32.25528258147714" y1="103.85087612893562" x2="33.80036755335189" y2="108.60615871041139"/>
    <line x1="33.80036755335189" y1="108.60615871041139" x2="29.045084971876072" y2="107.0610737385368"/>
    <line x1="29.045084971876072" y1="107.0610737385368" x2="25.000000000001407" y2="109.99999999999928"/>
    <line x1="25.000000000001407" y1="109.99999999999928" x2="25.000000000001275" y2="104.99999999999928"/>
    <line x1="46.00000000000128" y1="104.99999999999928" x2="41.95491502812658" y2="102.06107373853686"/>
    <line x1="41.95491502812658" y1="102.06107373853686" x2="46.71019760960232" y2="100.51598876666203"/>
    <line x1="46.71019760960232" y1="100.51598876666203" x2="48.25528258147687" y2="95.76070618518621"/>
    <line x1="48.25528258147687" y1="95.76070618518621" x2="51.19420884293928" y2="99.80579115706091"/>
    <line x1="51.19420884293928" y1="99.80579115706091" x2="56.19420884293928" y2="99.80579115706075"/>
    <line x1="56.19420884293928" y1="99.80579115706075" x2="53.25528258147693" y2="103.85087612893551"/>
    <line x1="53.25528258147693" y1="103.85087612893551" x2="54.80036755335151" y2="108.60615871041134"/>
    <line x1="54.80036755335151" y1="108.60615871041134" x2="50.04508497187566" y2="107.06107373853686"/>
    <line x1="50.04508497187566" y1="107.06107373853686" x2="46.00000000000097" y2="109.9999999999993"/>
    <line x1="46.00000000000097" y1="109.9999999999993" x2="46.00000000000102" y2="104.9999999999993"/>
    <line x1="67.00000000000102" y1="104.9999999999993" x2="62.95491502812626" y2="102.06107373853698"/>
    <line x1="62.95491502812626" y1="102.06107373853698" x2="67.71019760960205" y2="100.51598876666232"/>
    <line x1="67.71019760960205" y1="100.51598876666232" x2="69.25528258147676" y2="95.76070618518655"/>
    <line x1="69.25528258147676" y1="95.76070618518655" x2="72.19420884293926" y2="99.8057911570612"/>
    <line x1="72.19420884293926" y1="99.8057911570612" x2="77.19420884293926" y2="99.80579115706121"/>
    <line x1="77.19420884293926" y1="99.80579115706121" x2="74.255282581477" y2="103.85087612893602"/>
    <line x1="74.255282581477" y1="103.85087612893602" x2="75.80036755335169" y2="108.6061587104118"/>
    <line x1="75.80036755335169" y1="108.6061587104118" x2="71.0450849718759" y2="107.06107373853716"/>
    <line x1="71.0450849718759" y1="107.06107373853716" x2="67.00000000000128" y2="109.99999999999969"/>
    <line x1="67.00000000000128" y1="109.99999999999969" x2="67.00000000000122" y2="104.99999999999969"/>
    <line x1="88.00000000000122" y1="104.99999999999969" x2="83.95491502812656" y2="102.06107373853722"/>
    <line x1="83.95491502812656" y1="102.06107373853722" x2="88.71019760960232" y2="100.51598876666246"/>
    <line x1="88.71019760960232" y1="100.51598876666246" x2="90.25528258147693" y2="95.76070618518665"/>
    <line x1="90.25528258147693" y1="95.76070618518665" x2="93.19420884293929" y2="99.80579115706139"/>
    <line x1="93.19420884293929" y1="99.80579115706139" x2="98.19420884293929" y2="99.80579115706131"/>
    <line x1="98.19420884293929" y1="99.80579115706131" x2="95.25528258147689" y2="103.85087612893602"/>
    <line x1="95.25528258147689" y1="103.85087612893602" x2="96.80036755335168" y2="108.60615871041178"/>
    <line x1="96.80036755335168" y1="108.60615871041178" x2="92.04508497187585" y2="107.06107373853723"/>
    <line x1="92.04508497187585" y1="107.06107373853723" x2="88.00000000000112" y2="109.99999999999962"/>
    <line x1="88.00000000000112" y1="109.99999999999962" x2="88.00000000000095" y2="104.99999999999962"/>
    <line x1="109.00000000000095" y1="104.99999999999962" x2="104.95491502812622" y2="102.06107373853723"/>
    <line x1="104.95491502812622" y1="102.06107373853723" x2="109.71019760960203" y2="100.51598876666264"/>
    <line x1="109.71019760960203" y1="100.51598876666264" x2="111.25528258147655" y2="95.7607061851868"/>
    <line x1="111.25528258147655" y1="95.7607061851868" x2="114.19420884293899" y2="99.80579115706148"/>
    <line x1="114.19420884293899" y1="99.80579115706148" x2="119.19420884293899" y2="99.80579115706128"/>
    <line x1="119.19420884293899" y1="99.80579115706128" x2="116.25528258147668" y2="103.85087612893605"/>
    <line x1="116.25528258147668" y1="103.85087612893605" x2="117.8003675533513" y2="108.60615871041186"/>
    <line x1="117.8003675533513" y1="108.60615871041186" x2="113.04508497187551" y2="107.06107373853715"/>
    <line x1="113.04508497187551" y1="107.06107373853715" x2="109.00000000000085" y2="109.99999999999962"/>
    <line x1="109.00000000000085" y1="109.99999999999962" x2="109.00000000000087" y2="104.99999999999962"/>
    <line x1="130.00000000000085" y1="104.99999999999962" x2="125.95491502812607" y2="102.06107373853732"/>
    <line x1="125.95491502812607" y1="102.06107373853732" x2="130.71019760960183" y2="100.51598876666262"/>
    <line x1="130.71019760960183" y1="100.51598876666262" x2="132.2552825814765" y2="95.76070618518683"/>
    <line x1="132.2552825814765" y1="95.76070618518683" x2="135.19420884293905" y2="99.80579115706145"/>
    <line x1="135.19420884293905" y1="99.80579115706145" x2="140.19420884293905" y2="99.80579115706144"/>
    <line x1="140.19420884293905" y1="99.80579115706144" x2="137.2552825814766" y2="103.85087612893611"/>
    <line x1="137.2552825814766" y1="103.85087612893611" x2="138.80036755335132" y2="108.60615871041188"/>
    <line x1="138.80036755335132" y1="108.60615871041188" x2="134.04508497187553" y2="107.06107373853727"/>
    <line x1="134.04508497187553" y1="107.06107373853727" x2="130.00000000000094" y2="109.99999999999983"/>
    <line x1="130.00000000000094" y1="109.99999999999983" x2="130.00000000000082" y2="104.99999999999983"/>
    <line x1="151.00000000000082" y1="104.99999999999983" x2="146.95491502812615" y2="102.06107373853739"/>
    <line x1="146.95491502812615" y1="102.06107373853739" x2="151.7101976096019" y2="100.51598876666259"/>
    <line x1="151.7101976096019" y1="100.51598876666259" x2="153.25528258147648" y2="95.76070618518676"/>
    <line x1="153.25528258147648" y1="95.76070618518676" x2="156.19420884293888" y2="99.80579115706148"/>
    <line x1="156.19420884293888" y1="99.80579115706148" x2="161.19420884293888" y2="99.80579115706135"/>
    <line x1="161.19420884293888" y1="99.80579115706135" x2="158.2552825814765" y2="103.85087612893608"/>
    <line x1="158.2552825814765" y1="103.85087612893608" x2="159.80036755335132" y2="108.60615871041182"/>
    <line x1="159.80036755335132" y1="108.60615871041182" x2="155.04508497187547" y2="107.06107373853732"/>
    <line x1="155.04508497187547" y1="107.06107373853732" x2="151.00000000000077" y2="109.99999999999973"/>
    <line x1="151.00000000000077" y1="109.99999999999973" x2="151.00000000000085" y2="104.99999999999973"/>
    <line x1="172.00000000000085" y1="104.99999999999973" x2="167.9549150281261" y2="102.06107373853739"/>
    <line x1="167.9549150281261" y1="102.06107373853739" x2="172.7101976096019" y2="100.51598876666276"/>
    <line x1="172.7101976096019" y1="100.51598876666276" x2="174.25528258147637" y2="95.7607061851869"/>
    <line x1="174.25528258147637" y1="95.7607061851869" x2="177.19420884293885" y2="99.80579115706156"/>
    <line x1="177.19420884293885" y1="99.80579115706156" x2="182.19420884293885" y2="99.8057911570616"/>
    <line x1="182.19420884293885" y1="99.8057911570616" x2="179.25528258147656" y2="103.8508761289364"/>
    <line x1="179.25528258147656" y1="103.8508761289364" x2="180.8003675533512" y2="108.6061587104122"/>
    <line x1="180.8003675533512" y1="108.6061587104122" x2="176.0450849718754" y2="107.06107373853753"/>
    <line x1="176.0450849718754" y1="107.06107373853753" x2="172.00000000000077" y2="110.00000000000003"/>
    <line x1="172.00000000000077" y1="110.00000000000003" x2="172.00000000000074" y2="105.00000000000003"/>
    <line x1="193.00000000000074" y1="105.00000000000003" x2="188.95491502812592" y2="102.06107373853777"/>
    <line x1="188.95491502812592" y1="102.06107373853777" x2="193.7101976096017" y2="100.51598876666304"/>
    <line x1="193.7101976096017" y1="100.51598876666304" x2="195.25528258147634" y2="95.76070618518725"/>
    <line x1="195.25528258147634" y1="95.76070618518725" x2="198.1942088429389" y2="99.80579115706183"/>
    <line x1="198.1942088429389" y1="99.80579115706183" x2="203.1942088429389" y2="99.80579115706178"/>
    <line x1="203.1942088429389" y1="99.80579115706178" x2="200.25528258147648" y2="103.85087612893648"/>
    <line x1="200.25528258147648" y1="103.85087612893648" x2="201.80036755335124" y2="108.60615871041223"/>
    <line x1="201.80036755335124" y1="108.60615871041223" x2="197.0450849718754" y2="107.06107373853766"/>
    <line x1="197.0450849718754" y1="107.06107373853766" x2="193.00000000000068" y2="110.00000000000001"/>
    <line x1="193.00000000000068" y1="110.00000000000001" x2="193.00000000000054" y2="105.00000000000001"/>
    <line x1="214.00000000000054" y1="105.00000000000001" x2="209.95491502812584" y2="102.06107373853762"/>
    <line x1="209.95491502812584" y1="102.06107373853762" x2="214.71019760960158" y2="100.51598876666277"/>
    <line x1="214.71019760960158" y1="100.51598876666277" x2="216.25528258147614" y2="95.76070618518695"/>
    <line x1="216.25528258147614" y1="95.76070618518695" x2="219.19420884293856" y2="99.80579115706165"/>
    <line x1="219.19420884293856" y1="99.80579115706165" x2="224.19420884293856" y2="99.80579115706148"/>
    <line x1="224.19420884293856" y1="99.80579115706148" x2="221.25528258147622" y2="103.85087612893624"/>
    <line x1="221.25528258147622" y1="103.85087612893624" x2="222.8003675533508" y2="108.60615871041205"/>
    <line x1="222.8003675533508" y1="108.60615871041205" x2="218.04508497187496" y2="107.06107373853757"/>
    <line x1="218.04508497187496" y1="107.06107373853757" x2="214.00000000000028" y2="110.00000000000001"/>
    <line x1="214.00000000000028" y1="110.00000000000001" x2="214.0000000000003" y2="105.00000000000001"/>
    <line x1="430.0" y1="25.0" x2="230.0" y2="24.999999999997453"/>
    <line x1="430.0" y1="25.999999999997453" x2="230.0" y2="25.999999999994905"/>
    <line x1="430.0" y1="26.999999999994905" x2="230.0" y2="26.999999999992358"/>
    <line x1="430.0" y1="27.999999999992358" x2="230.0" y2="27.99999999998981"/>
    <line x1="430.0" y1="28.99999999998981" x2="230.0" y2="28.999999999987264"/>
    <line x1="430.0" y1="44.99999999998727" x2="230.0" y2="44.999999999984716"/>
    <line x1="430.0" y1="45.999999999984716" x2="230.0" y2="45.999999999982165"/>
    <line x1="430.0" y1="46.999999999982165" x2="230.0" y2="46.999999999979615"/>
    <line x1="430.0" y1="47.999999999979615" x2="230.0" y2="47.999999999977064"/>
    <line x1="430.0" y1="48.999999999977064" x2="230.0" y2="48.99999999997451"/>
    <line x1="430.0" y1="64.9999999999745" x2="230.0" y2="64.99999999997196"/>
    <line x1="430.0" y1="65.99999999997196" x2="230.0" y2="65.99999999996942"/>
    <line x1="430.0" y1="66.99999999996942" x2="230.0" y2="66.99999999996687"/>
    <line x1="430.0" y1="67.99999999996687" x2="230.0" y2="67.99999999996433"/>
    <line x1="430.0" y1="68.99999999996433" x2="230.0" y2="68.99999999996179"/>
    <line x1="430.0" y1="84.99999999996179" x2="230.0" y2="84.99999999995924"/>
    <line x1="430.0" y1="85.99999999995924" x2="230.0" y2="85.9999999999567"/>
    <line x1="430.0" y1="86.9999999999567" x2="230.0" y2="86.99999999995416"/>
    <line x1="430.0" y1="87.99999999995416" x2="230.0" y2="87.99999999995161"/>
    <line x1="430.0" y1="88.99999999995161" x2="230.0" y2="88.99999999994907"/>
    <line x1="430.0" y1="104.99999999994907" x2="230.0" y2="104.99999999994652"/>
    <line x1="430.0" y1="105.99999999994652" x2="230.0" y2="105.99999999994398"/>
    <line x1="430.0" y1="106.99999999994398" x2="230.0" y2="106.99999999994144"/>
    <line x1="430.0" y1="107.99999999994144" x2="230.0" y2="107.9999999999389"/>
    <line x1="430.0" y1="108.9999999999389" x2="230.0" y2="108.99999999993635"/>
    <line x1="430.0" y1="125.0" x2="20.0" y2="124.99999999999477"/>
    <line x1="430.0" y1="125.99999999999477" x2="20.0" y2="125.99999999998954"/>
    <line x1="430.0" y1="126.99999999998954" x2="20.0" y2="126.99999999998431"/>
    <line x1="430.0" y1="127.99999999998431" x2="20.0" y2="127.99999999997908"/>
    <line x1="430.0" y1="128.99999999997908" x2="20.0" y2="128.99999999997385"/>
    <line x1="430.0" y1="144.99999999997385" x2="20.0" y2="144.99999999996862"/>
    <line x1="430.0" y1="145.99999999996862" x2="20.0" y2="145.9999999999634"/>
    <line x1="430.0" y1="146.9999999999634" x2="20.0" y2="146.99999999995816"/>
    <line x1="430.0" y1="147.99999999995816" x2="20.0" y2="147.99999999995293"/>
    <line x1="430.0" y1="148.99999999995293" x2="20.0" y2="148.9999999999477"/>
    <line x1="430.0" y1="164.9999999999477" x2="20.0" y2="164.99999999994247"/>
    <line x1="430.0" y1="165.99999999994247" x2="20.0" y2="165.99999999993724"/>
    <line x1="430.0" y1="166.99999999993724" x2="20.0" y2="166.99999999993202"/>
    <line x1="430.0" y1="167.99999999993202" x2="20.0" y2="167.99999999992679"/>
    <line x1="430.0" y1="168.99999999992679" x2="20.0" y2="168.99999999992156"/>
    <line x1="430.0" y1="184.99999999992156" x2="20.0" y2="184.99999999991633"/>
    <line x1="430.0" y1="185.99999999991633" x2="20.0" y2="185.9999999999111"/>
    <line x1="430.0" y1="186.9999999999111" x2="20.0" y2="186.99999999990587"/>
    <line x1="430.0" y1="187.99999999990587" x2="20.0" y2="187.99999999990064"/>
    <line x1="430.0" y1="188.99999999990064" x2="20.0" y2="188.9999999998954"/>
    <line x1="430.0" y1="204.9999999998954" x2="20.0" y2="204.99999999989018"/>
    <line x1="430.0" y1="205.99999999989018" x2="20.0" y2="205.99999999988495"/>
    <line x1="430.0" y1="206.99999999988495" x2="20.0" y2="206.99999999987972"/>
    <line x1="430.0" y1="207.99999999987972" x2="20.0" y2="207.9999999998745"/>
    <line x1="430.0" y1="208.9999999998745" x2="20.0" y2="208.99999999986926"/>
</svg>
